<?xml version="1.0" encoding="UTF-8" standalone="no"?>
<!DOCTYPE svg PUBLIC "-//W3C//DTD SVG 1.1//EN" "http://www.w3.org/Graphics/SVG/1.1/DTD/svg11.dtd">
<svg width="100%" height="100%" viewBox="0 0 477 477" version="1.1" xmlns="http://www.w3.org/2000/svg" xmlns:xlink="http://www.w3.org/1999/xlink" xml:space="preserve" xmlns:serif="http://www.serif.com/" style="fill-rule:evenodd;clip-rule:evenodd;stroke-linejoin:round;stroke-miterlimit:2;">
    <g transform="matrix(1,0,0,1,-124.54,-53.999895)">
        <path d="M495.81,94.57C500.46,97.71 504.99,101 509.4,104.45L471.68,156.46C467.32,152.95 462.78,149.66 458.08,146.58L495.81,94.57ZM269.31,73.04L289.26,134.43C301.92,128.52 315.41,124.09 329.5,121.36L309.55,59.97C295.64,63.14 282.19,67.54 269.31,73.04M409.29,124.47C414.19,125.83 419.01,127.37 423.73,129.13L443.57,68.05C438.83,66.34 434.02,64.78 429.14,63.37L409.29,124.47ZM211.59,205.98C217.95,194.86 225.45,184.48 234.02,175.08L181.9,137.21C173.62,146.86 166.1,157.18 159.43,168.09L211.59,205.98ZM244.89,164.16C254.74,155.08 265.65,147.15 277.4,140.52L239.48,88.33C227.97,95.3 217.1,103.22 206.98,111.98L244.89,164.16ZM586.14,209.24L525.02,229.14C527.38,235.2 529.43,241.41 531.11,247.78L592.2,227.89C590.43,221.55 588.41,215.34 586.14,209.24M188.69,292.22C188.69,286.41 188.99,280.66 189.55,274.99L125.17,274.99C124.76,280.68 124.54,286.43 124.54,292.22C124.54,298.02 124.76,303.76 125.17,309.45L189.55,309.45C188.99,303.78 188.69,298.04 188.69,292.22M536.86,292.22C536.86,295.87 536.71,299.49 536.49,303.08L600.75,303.08C600.91,299.48 601.01,295.86 601.01,292.22C601.01,288.58 600.92,284.96 600.75,281.36L536.49,281.36C536.71,284.95 536.86,288.57 536.86,292.22M192.5,255.97C195.04,243.96 198.85,232.43 203.72,221.47L142.42,201.55C137.85,212.65 134.09,224.18 131.22,236.05L192.5,255.97ZM498,182.62C501.91,187.44 505.55,192.47 508.93,197.7L560.96,160C557.5,154.83 553.86,149.8 550.02,144.93L498,182.62ZM340.51,55.04L340.51,119.61C343.43,119.24 352.75,118.14 362.78,118.14C373.84,118.14 382.12,119.23 385.05,119.61L385.05,55.04C381.41,54.7 372.4,54 362.78,54C351.12,53.99 344.15,54.7 340.51,55.04M476.37,424.08C469.98,429.59 463.19,434.64 456.04,439.19L493.9,491.14C500.96,486.48 507.77,481.46 514.28,476.09L476.37,424.08ZM202.99,361.35C198.69,351.42 195.3,341 192.9,330.2L131.64,350.11C134.31,360.79 137.7,371.19 141.75,381.25L202.99,361.35ZM428.48,453.43C420.71,456.6 412.67,459.22 404.38,461.25L424.25,522.42C432.47,520.23 440.5,517.62 448.35,514.6L428.48,453.43ZM531.53,335.07C529.64,342.52 527.25,349.77 524.43,356.81L585.57,376.7C588.26,369.61 590.62,362.35 592.64,354.96L531.53,335.07ZM510.37,384.49C506.1,391.31 501.38,397.82 496.23,403.96L548.26,441.7C553.29,435.46 558.02,428.97 562.41,422.23L510.37,384.49ZM234.96,493.29L272.77,441.25C264.31,436.13 256.34,430.27 248.91,423.83L211.07,475.9C218.65,482.17 226.63,487.98 234.96,493.29M231.68,406.69C224.86,398.89 218.71,390.49 213.36,381.55L161.3,419.37C166.86,428.16 172.97,436.56 179.6,444.52L231.68,406.69ZM322.51,461.57C313.31,459.39 304.37,456.51 295.8,452.93L275.92,514.11C284.59,517.5 293.5,520.4 302.62,522.78L322.51,461.57ZM376.11,530.07L376.11,465.74C371.71,466.07 367.27,466.3 362.78,466.3C358.29,466.3 353.85,466.07 349.45,465.74L349.45,530.07C353.86,530.31 358.31,530.45 362.78,530.45C367.25,530.45 371.7,530.32 376.11,530.07M317.07,135.15C313.86,136.08 310.67,137.09 307.54,138.21L325.56,193.65C328.67,192.48 331.85,191.45 335.08,190.57L317.07,135.15ZM374.41,129.09L374.41,187.53C370.59,187.11 366.71,186.88 362.77,186.88C358.83,186.88 354.95,187.11 351.13,187.53L351.13,129.09C354.98,128.82 358.85,128.63 362.77,128.63C366.69,128.63 370.57,128.81 374.41,129.09M405.88,196.1C399.07,193.04 391.9,190.67 384.41,189.11L402.48,133.51C409.85,135.35 417.01,137.7 423.95,140.5L405.88,196.1ZM433.21,213.89C427.79,209.01 421.85,204.71 415.51,201.03L449.86,153.75C456.05,157.65 461.97,161.93 467.56,166.6L433.21,213.89ZM305.33,203.94C302.33,205.89 299.44,207.99 296.67,210.23L262.41,163.09C265.22,160.9 268.09,158.77 271.05,156.76L305.33,203.94ZM453.79,239.19C450.21,233.06 446.04,227.32 441.34,222.06L488.62,187.71C493.13,193.13 497.27,198.87 501.06,204.85L453.79,239.19ZM209.16,235.84L264.66,253.86C263.2,257.6 261.93,261.43 260.89,265.36L205.46,247.36C206.57,243.47 207.78,239.61 209.16,235.84M468.13,292.22C468.13,288.88 467.96,285.59 467.65,282.33L526.05,282.33C526.24,285.61 526.38,288.9 526.38,292.22C526.38,295.55 526.25,298.84 526.05,302.11L467.65,302.11C467.95,298.85 468.13,295.56 468.13,292.22M281.16,225.63C278.76,228.57 276.52,231.65 274.45,234.85L227.25,200.59C229.39,197.44 231.66,194.39 234.01,191.4L281.16,225.63ZM257.43,292.22C257.43,294.37 257.52,296.5 257.64,298.62L199.34,298.62C199.26,296.49 199.18,294.36 199.18,292.22C199.18,290.07 199.26,287.95 199.34,285.82L257.64,285.82C257.51,287.94 257.43,290.07 257.43,292.22M294.95,372.81C298.74,376 302.77,378.93 306.99,381.58L272.71,428.78C268.56,426.04 264.55,423.11 260.67,420L294.95,372.81ZM322.93,389.75C327.71,391.7 332.66,393.32 337.76,394.56L319.72,450.05C314.67,448.68 309.73,447.08 304.88,445.24L322.93,389.75ZM273.55,348.2C276.08,352.22 278.86,356.06 281.89,359.69L234.73,393.96C231.78,390.26 228.99,386.44 226.37,382.49L273.55,348.2ZM260.7,318.34C261.82,322.74 263.24,327.01 264.9,331.17L209.4,349.2C207.84,345 206.48,340.71 205.26,336.35L260.7,318.34ZM354.63,455.61L354.63,397.23C357.32,397.44 360.03,397.58 362.78,397.58C365.52,397.58 368.23,397.44 370.92,397.23L370.92,455.61C368.22,455.74 365.51,455.82 362.78,455.82C360.04,455.81 357.33,455.74 354.63,455.61M465.65,269.56C464.17,262.8 462.04,256.28 459.33,250.08L514.88,232.03C517.38,238.34 519.54,244.83 521.25,251.5L465.65,269.56ZM387.09,394.72C392.66,393.4 398.07,391.66 403.26,389.5L421.3,444.99C416.04,447.01 410.65,448.77 405.14,450.24L387.09,394.72ZM459.62,333.72C462.11,327.92 464.07,321.84 465.49,315.56L521.07,333.62C519.45,339.82 517.45,345.87 515.14,351.76L459.62,333.72ZM442.25,361.33C446.27,356.71 449.91,351.75 453.08,346.47L500.29,380.77C496.96,385.93 493.37,390.91 489.49,395.65L442.25,361.33ZM417.33,382.36C422.39,379.29 427.16,375.78 431.61,371.93L465.93,419.17C461.36,422.89 456.58,426.34 451.61,429.56L417.33,382.36Z" style="fill:white;fill-rule:nonzero;"/>
    </g>
</svg>
